<?xml version="1.0" encoding="UTF-8"?> <svg xmlns="http://www.w3.org/2000/svg" xmlns:xlink="http://www.w3.org/1999/xlink" version="1.1" id="Layer_1" x="0px" y="0px" viewBox="0 0 793 832" style="enable-background:new 0 0 793 832;" xml:space="preserve"> <path d="M384.8,0.2C255.3,10.7,139.1,78.8,69,185.3c-12.9,19.6-18.6,29.7-28.6,50.5C12.9,292.9,0,350.6,0,416.1 c0,29,1.3,46,5.8,71.9C26.2,606.4,97,710,200.5,772.7c25.7,15.6,59.8,31.1,88.8,40.4c24.6,7.9,57.2,14.5,86.5,17.7 c15.9,1.7,65.2,1.7,81.5,0c97.7-10.5,184.9-51.6,252.8-119.2c36.4-36.2,62.7-81.4,74.8-128.6c15-58.9,8.9-120-17.1-169.1 c-28.2-53.4-81.6-95.7-139-110.1c-20-5-26.1-5.7-51.5-5.6c-26.2,0-33.8,0.9-57.3,7.1l-13.8,3.5L489,291.9 c-27.4-26.9-47.5-38.5-77.7-45c-12-2.6-43.9-2.5-55.8,0c-18,4-33.7,10.5-48.8,20.5c-48.5,32.1-71.8,90.9-58.4,147.9 c2.6,11,6,17.5,12.9,24.4c18.2,18.1,47.1,18.4,65,0.6c12.2-12.1,16.7-28.3,12.6-45.2c-6.5-26.9,10.5-52.8,37.7-57.5 c8.9-1.6,18.6,0,27.6,4.6c6,3,12.4,9,61.4,58.1c60.3,60.5,59.2,59.1,61.8,74.4c4.5,26.8-17.9,52.9-45.4,52.9 c-12,0-22.5-4.3-31.7-12.7c-8.3-7.7-12.1-15.8-12.7-26.7c-0.8-14.8,5.4-27.5,20.2-41.2c4.4-4.2,10.4-9.4,13.3-11.7 c2.9-2.3,5.2-4.4,5.3-4.7c0-0.3-14.8-15.3-32.9-33.4l-33-32.9l-6.8,6c-11.5,10.2-28.5,28.4-34,36.3c-10.7,15.7-18.5,33.8-22.5,52.2 c-2.6,12.4-3.1,37.7-0.9,49.8c9.7,54.5,52.1,97.3,108.4,109.1c13.4,2.9,37.7,3.1,51.7,0.6c58.1-10.7,102.4-55.5,112.5-114.1 c1.9-11.3,1.9-33.3,0-45.1c-3.3-20.8-12.3-42.4-24.5-59.4c-3.4-4.6-5.9-8.5-5.8-8.7c0.8-0.7,17.7,2.9,25.1,5.3 c31,10.3,60.9,36.6,74.1,65.4c8.2,17.9,11.8,35.4,11.9,57.4c0,36.7-12.6,73.3-36.4,105.5c-7.6,10.4-30,32.8-42.9,43.1 c-47.6,38-99.3,60.2-161.5,69.6c-9.6,1.4-18.1,1.8-43,1.7c-35.3,0-46.7-1.3-76-8.4C236.9,705.6,153.9,633.4,115,535 c-14.1-35.5-21.2-70.3-22.4-109.5c-3.1-105.7,44.2-204.4,128.7-268.3c17.4-13.2,28.6-20.1,49.5-30.6c33.6-17,69.4-27.8,108.5-32.6 c16.5-2.1,53.7-2.3,69.5-0.5c74.2,8.5,136.9,37.2,189.7,86.9c13.8,13,21.7,17.5,33.2,19.3c19.4,3.1,39.3-7.6,48.4-26 c3.7-7.4,3.7-7.7,3.7-19.5c0-11.6-0.1-12.4-3.2-18.9c-4.4-9.3-7.6-13-21.7-25.9C640.1,55.8,571.6,21.3,494.8,6.6 c-26-4.9-39.5-6.2-73-6.5C404.2,0,387.6,0,384.8,0.2z"></path> </svg> 